<?xml version="1.0" encoding="utf-8"?>
<!-- Generator: Adobe Illustrator 18.1.1, SVG Export Plug-In . SVG Version: 6.00 Build 0)  -->
<svg version="1.1" xmlns="http://www.w3.org/2000/svg" xmlns:xlink="http://www.w3.org/1999/xlink" x="0px" y="0px"
	 viewBox="-796 -1296 2034.9 2387.9" enable-background="new -796 -1296 2034.9 2387.9" xml:space="preserve">
<g id="Layer_1_copy_2" display="none">
	<rect x="-689.8" y="-1222.3" display="inline" fill="#FFFFFF" width="10" height="10"/>
	<rect x="-15.4" y="-1222.3" display="inline" fill="#FFFFFF" width="10" height="10"/>
	<rect x="-240.3" y="-982.4" display="inline" fill="#FFFFFF" width="10" height="10"/>
	<rect x="434.1" y="-982.4" display="inline" fill="#FFFFFF" width="10" height="10"/>
	<rect x="-465.1" y="-742.6" display="inline" fill="#FFFFFF" width="10" height="10"/>
	<rect x="209.2" y="-742.6" display="inline" fill="#FFFFFF" width="10" height="10"/>
	<rect x="-690" y="-502.7" display="inline" fill="#FFFFFF" width="10" height="10"/>
	<rect x="-15.6" y="-502.7" display="inline" fill="#FFFFFF" width="10" height="10"/>
	<rect x="-240.4" y="-262.8" display="inline" fill="#FFFFFF" width="10" height="10"/>
	<rect x="433.9" y="-262.8" display="inline" fill="#FFFFFF" width="10" height="10"/>
	<rect x="-465.3" y="-22.9" display="inline" fill="#FFFFFF" width="10" height="10"/>
	<rect x="209.1" y="-22.9" display="inline" fill="#FFFFFF" width="10" height="10"/>
	<rect x="-690.1" y="217" display="inline" fill="#FFFFFF" width="10" height="10"/>
	<rect x="-15.8" y="217" display="inline" fill="#FFFFFF" width="10" height="10"/>
	<rect x="658.9" y="-1222.3" display="inline" fill="#FFFFFF" width="10" height="10"/>
	<rect x="1108.5" y="-982.4" display="inline" fill="#FFFFFF" width="10" height="10"/>
	<rect x="883.6" y="-742.6" display="inline" fill="#FFFFFF" width="10" height="10"/>
	<rect x="658.8" y="-502.7" display="inline" fill="#FFFFFF" width="10" height="10"/>
	<rect x="1108.3" y="-262.8" display="inline" fill="#FFFFFF" width="10" height="10"/>
	<rect x="883.5" y="-22.9" display="inline" fill="#FFFFFF" width="10" height="10"/>
	<rect x="658.6" y="217" display="inline" fill="#FFFFFF" width="10" height="10"/>
	<rect x="-240.4" y="453.1" display="inline" fill="#FFFFFF" width="10" height="10"/>
	<rect x="433.9" y="453.1" display="inline" fill="#FFFFFF" width="10" height="10"/>
	<rect x="-465.3" y="692.9" display="inline" fill="#FFFFFF" width="10" height="10"/>
	<rect x="209.1" y="692.9" display="inline" fill="#FFFFFF" width="10" height="10"/>
	<rect x="-690.1" y="932.8" display="inline" fill="#FFFFFF" width="10" height="10"/>
	<rect x="-15.8" y="932.8" display="inline" fill="#FFFFFF" width="10" height="10"/>
	<rect x="1108.3" y="453.1" display="inline" fill="#FFFFFF" width="10" height="10"/>
	<rect x="883.5" y="692.9" display="inline" fill="#FFFFFF" width="10" height="10"/>
	<rect x="658.6" y="932.8" display="inline" fill="#FFFFFF" width="10" height="10"/>
</g>
<g id="Layer_1_copy_3" display="none">
	<circle display="inline" fill="#FFFFFF" cx="-235.2" cy="-1217.3" r="5"/>
	<circle display="inline" fill="#FFFFFF" cx="439.1" cy="-1217.3" r="5"/>
	<circle display="inline" fill="#FFFFFF" cx="-460.1" cy="-977.4" r="5"/>
	<circle display="inline" fill="#FFFFFF" cx="214.3" cy="-977.4" r="5"/>
	<circle display="inline" fill="#FFFFFF" cx="-684.9" cy="-737.6" r="5"/>
	<circle display="inline" fill="#FFFFFF" cx="-10.5" cy="-737.6" r="5"/>
	<circle display="inline" fill="#FFFFFF" cx="-235.4" cy="-497.7" r="5"/>
	<circle display="inline" fill="#FFFFFF" cx="439" cy="-497.7" r="5"/>
	<circle display="inline" fill="#FFFFFF" cx="-460.2" cy="-257.8" r="5"/>
	<circle display="inline" fill="#FFFFFF" cx="214.1" cy="-257.8" r="5"/>
	<circle display="inline" fill="#FFFFFF" cx="-685.1" cy="-17.9" r="5"/>
	<circle display="inline" fill="#FFFFFF" cx="-10.7" cy="-17.9" r="5"/>
	<circle display="inline" fill="#FFFFFF" cx="-235.5" cy="222" r="5"/>
	<circle display="inline" fill="#FFFFFF" cx="438.8" cy="222" r="5"/>
	<circle display="inline" fill="#FFFFFF" cx="1113.5" cy="-1217.3" r="5"/>
	<circle display="inline" fill="#FFFFFF" cx="888.7" cy="-977.4" r="5"/>
	<circle display="inline" fill="#FFFFFF" cx="663.8" cy="-737.6" r="5"/>
	<circle display="inline" fill="#FFFFFF" cx="1113.4" cy="-497.7" r="5"/>
	<circle display="inline" fill="#FFFFFF" cx="888.5" cy="-257.8" r="5"/>
	<circle display="inline" fill="#FFFFFF" cx="663.7" cy="-17.9" r="5"/>
	<circle display="inline" fill="#FFFFFF" cx="1113.2" cy="222" r="5"/>
	<circle display="inline" fill="#FFFFFF" cx="-460.2" cy="458.1" r="5"/>
	<circle display="inline" fill="#FFFFFF" cx="214.1" cy="458.1" r="5"/>
	<circle display="inline" fill="#FFFFFF" cx="-685.1" cy="697.9" r="5"/>
	<circle display="inline" fill="#FFFFFF" cx="-10.7" cy="697.9" r="5"/>
	<circle display="inline" fill="#FFFFFF" cx="-235.5" cy="937.8" r="5"/>
	<circle display="inline" fill="#FFFFFF" cx="438.8" cy="937.8" r="5"/>
	<circle display="inline" fill="#FFFFFF" cx="888.5" cy="458.1" r="5"/>
	<circle display="inline" fill="#FFFFFF" cx="663.7" cy="697.9" r="5"/>
	<circle display="inline" fill="#FFFFFF" cx="1113.2" cy="937.8" r="5"/>
</g>
<g id="Layer_1_copy_4">
	<polygon fill="#FFFFFF" points="-465.7,-1212.3 -460,-1222.3 -454.3,-1212.3 	"/>
	<polygon fill="#FFFFFF" points="208.6,-1212.3 214.4,-1222.3 220.1,-1212.3 	"/>
	<polygon fill="#FFFFFF" points="-690.6,-972.4 -684.9,-982.4 -679.1,-972.4 	"/>
	<polygon fill="#FFFFFF" points="-16.3,-972.4 -10.4,-982.4 -4.7,-972.4 	"/>
	<polygon fill="#FFFFFF" points="-241.1,-732.5 -235.3,-742.6 -229.5,-732.5 	"/>
	<polygon fill="#FFFFFF" points="433.3,-732.5 439,-742.6 444.8,-732.5 	"/>
	<polygon fill="#FFFFFF" points="-466,-492.7 -460.1,-502.7 -454.4,-492.7 	"/>
	<polygon fill="#FFFFFF" points="208.5,-492.7 214.2,-502.7 219.9,-492.7 	"/>
	<polygon fill="#FFFFFF" points="-690.8,-252.8 -685,-262.8 -679.2,-252.8 	"/>
	<polygon fill="#FFFFFF" points="-16.4,-252.8 -10.7,-262.8 -4.9,-252.8 	"/>
	<polygon fill="#FFFFFF" points="-241.2,-12.9 -235.5,-22.9 -229.8,-12.9 	"/>
	<polygon fill="#FFFFFF" points="433.1,-12.9 438.9,-22.9 444.7,-12.9 	"/>
	<polygon fill="#FFFFFF" points="-466.1,227 -460.3,217 -454.6,227 	"/>
	<polygon fill="#FFFFFF" points="208.2,227 214.1,217 219.8,227 	"/>
	<polygon fill="#FFFFFF" points="882.9,-1212.3 888.8,-1222.3 894.5,-1212.3 	"/>
	<polygon fill="#FFFFFF" points="658.1,-972.4 664,-982.4 669.7,-972.4 	"/>
	<polygon fill="#FFFFFF" points="1107.7,-732.5 1113.4,-742.6 1119.1,-732.5 	"/>
	<polygon fill="#FFFFFF" points="882.9,-492.7 888.6,-502.7 894.3,-492.7 	"/>
	<polygon fill="#FFFFFF" points="658,-252.8 663.7,-262.8 669.4,-252.8 	"/>
	<polygon fill="#FFFFFF" points="1107.5,-12.9 1113.3,-22.9 1119,-12.9 	"/>
	<polygon fill="#FFFFFF" points="882.6,227 888.5,217 894.2,227 	"/>
	<polygon fill="#FFFFFF" points="-690.8,463.1 -685,453.1 -679.2,463.1 	"/>
	<polygon fill="#FFFFFF" points="-16.4,463.1 -10.7,453.1 -4.9,463.1 	"/>
	<polygon fill="#FFFFFF" points="-241.2,702.9 -235.5,692.9 -229.8,702.9 	"/>
	<polygon fill="#FFFFFF" points="433.1,702.9 438.9,692.9 444.7,702.9 	"/>
	<polygon fill="#FFFFFF" points="-466.1,942.8 -460.3,932.8 -454.6,942.8 	"/>
	<polygon fill="#FFFFFF" points="208.2,942.8 214.1,932.8 219.8,942.8 	"/>
	<polygon fill="#FFFFFF" points="658,463.1 663.7,453.1 669.4,463.1 	"/>
	<polygon fill="#FFFFFF" points="1107.5,702.9 1113.3,692.9 1119,702.9 	"/>
	<polygon fill="#FFFFFF" points="882.6,942.8 888.5,932.8 894.2,942.8 	"/>
</g>
</svg>
