<?xml version="1.0" encoding="utf-8"?>
<!-- Generator: Adobe Illustrator 19.0.1, SVG Export Plug-In . SVG Version: 6.00 Build 0)  -->
<svg version="1.1" id="Layer_1" xmlns="http://www.w3.org/2000/svg" xmlns:xlink="http://www.w3.org/1999/xlink" x="0px" y="0px"
	 viewBox="0 0 127.2 55" style="enable-background:new 0 0 127.2 55;" xml:space="preserve">
<style type="text/css">
	.st0{fill:#FFFFFF;}
</style>
<g>
	<path class="st0" d="M6.7,17.3c-0.1,0-0.2,0.1-0.2,0.2v3.9c0,0.2-0.1,0.3-0.3,0.3H4.7c-0.2,0-0.3-0.1-0.3-0.3V11.1
		c0-0.2,0.1-0.3,0.3-0.3h3.4c1.8,0,3.3,1.5,3.3,3.3c0,1.2-0.5,2-1.6,2.8c-0.2,0.2-0.2,0.3-0.1,0.5l1.7,3.9c0.1,0.2,0,0.5-0.3,0.5
		H9.4c-0.2,0-0.4-0.1-0.5-0.3l-1.6-3.8c0-0.1-0.1-0.2-0.3-0.2H6.7z M6.7,12.9c-0.1,0-0.2,0.1-0.2,0.2V15c0,0.1,0.1,0.2,0.2,0.2h1.4
		c0.6,0,1.1-0.5,1.1-1.1c0-0.6-0.5-1.1-1.1-1.1H6.7z"/>
	<path class="st0" d="M14.5,18.4c-0.1,0-0.2,0.1-0.2,0.2c0,0.9,0.6,1.3,1.4,1.3c0.6,0,1-0.2,1.2-0.7c0.1-0.2,0.2-0.3,0.4-0.3h1.3
		c0.2,0,0.3,0.1,0.3,0.3c-0.4,1.4-1.4,2.5-3.1,2.5c-1.9,0-3-1.3-3.2-2.9c-0.1-0.6-0.1-1.7,0-2.3c0.2-1.6,1.3-2.9,3.2-2.9
		c1.9,0,3.2,1.1,3.2,3.1v1.3c0,0.2-0.1,0.3-0.3,0.3H14.5z M14.3,16.5c0,0.1,0.1,0.1,0.2,0.1h2.4c0.1,0,0.2,0,0.2-0.1
		c0-0.7-0.7-1-1.3-1C14.8,15.5,14.3,15.9,14.3,16.5z"/>
	<path class="st0" d="M26.1,16.5h-1.2c-0.2,0-0.3-0.1-0.4-0.4c-0.1-0.5-0.7-0.7-1.2-0.7c-0.7,0-1.2,0.2-1.2,0.6
		c0,0.5,0.6,0.5,1.2,0.6c1.4,0.3,3.3,0.5,3.3,2.6c0,1.5-1.5,2.5-3.3,2.5c-1.7,0-3.3-0.8-3.3-2.7c0-0.2,0.1-0.3,0.3-0.3h1.2
		c0.4,0,0.4,0.1,0.5,0.4c0.1,0.6,0.7,0.8,1.4,0.8c0.8,0,1.4-0.2,1.4-0.7c0-0.5-0.7-0.6-1.4-0.7c-1.3-0.2-3.1-0.7-3.1-2.5
		c0-1.4,1.6-2.3,3.1-2.3c1.4,0,3.1,0.7,3.1,2.5C26.4,16.4,26.2,16.5,26.1,16.5z"/>
	<path class="st0" d="M34.4,16.6c0,0.6,0,1.7,0,2.3c-0.1,1.6-1.3,2.9-3,2.9c-0.5,0-0.7-0.1-0.9-0.2c-0.2-0.1-0.5,0-0.5,0.3v2.5
		c0,0.2-0.1,0.3-0.3,0.3h-1.4c-0.2,0-0.3-0.1-0.3-0.3V14.2c0-0.2,0.1-0.3,0.3-0.3h0.8c0.1,0,0.2,0,0.2,0.1c0.1,0.1,0.2,0.2,0.4,0.2
		c0.5,0,0.6-0.5,1.7-0.5C33.1,13.7,34.3,15,34.4,16.6z M32.4,16.6c0-0.5-0.4-0.9-1.2-0.9c-0.8,0-1.1,0.4-1.2,0.9c0,0.6,0,1.7,0,2.3
		c0,0.6,0.4,0.9,1.2,0.9c0.7,0,1.1-0.4,1.2-0.9C32.4,18.3,32.4,17.2,32.4,16.6z"/>
	<path class="st0" d="M35.8,16.6c0.2-1.6,1.3-2.9,3.2-2.9c1.9,0,3,1.3,3.2,2.9c0.1,0.6,0.1,1.7,0,2.3c-0.2,1.6-1.3,2.9-3.2,2.9
		c-1.9,0-3-1.3-3.2-2.9C35.7,18.3,35.7,17.2,35.8,16.6z M37.8,18.9c0.1,0.5,0.4,0.9,1.2,0.9c0.8,0,1.1-0.4,1.2-0.9
		c0.1-0.6,0.1-1.7,0-2.3c-0.1-0.5-0.4-0.9-1.2-0.9c-0.8,0-1.1,0.3-1.2,0.9C37.7,17.2,37.7,18.3,37.8,18.9z"/>
	<path class="st0" d="M50.3,21.3c0,0.2-0.1,0.3-0.3,0.3h-1.4c-0.2,0-0.3-0.1-0.3-0.3v-4.8c0-0.5-0.4-0.9-1.2-0.9
		c-0.7,0-1.2,0.4-1.2,0.9v4.8c0,0.2-0.1,0.3-0.3,0.3h-1.4c-0.2,0-0.3-0.1-0.3-0.3v-7.2c0-0.2,0.1-0.3,0.3-0.3H45
		c0.1,0,0.2,0,0.3,0.1c0.1,0.1,0.2,0.3,0.4,0.3c0.5,0,0.8-0.5,1.7-0.5c1.6,0,2.9,1.3,2.9,2.9V21.3z"/>
	<path class="st0" d="M57.7,16.5h-1.2c-0.2,0-0.3-0.1-0.4-0.4c-0.1-0.5-0.7-0.7-1.2-0.7c-0.7,0-1.2,0.2-1.2,0.6
		c0,0.5,0.6,0.5,1.2,0.6c1.4,0.3,3.3,0.5,3.3,2.6c0,1.5-1.5,2.5-3.3,2.5c-1.7,0-3.3-0.8-3.3-2.7c0-0.2,0.1-0.3,0.3-0.3h1.2
		c0.4,0,0.4,0.1,0.5,0.4c0.1,0.6,0.7,0.8,1.4,0.8c0.8,0,1.4-0.2,1.4-0.7c0-0.5-0.7-0.6-1.4-0.7c-1.3-0.2-3.1-0.7-3.1-2.5
		c0-1.4,1.6-2.3,3.1-2.3c1.4,0,3.1,0.7,3.1,2.5C58,16.4,57.9,16.5,57.7,16.5z"/>
	<path class="st0" d="M61.9,12.5c0,0.1-0.1,0.2-0.2,0.2h-1.7c-0.1,0-0.2-0.1-0.2-0.2v-1.7c0-0.1,0.1-0.2,0.2-0.2h1.7
		c0.1,0,0.2,0.1,0.2,0.2V12.5z M61.8,21.4c0,0.1-0.1,0.2-0.2,0.2H60c-0.1,0-0.2-0.1-0.2-0.2v-7.3c0-0.1,0.1-0.2,0.2-0.2h1.5
		c0.1,0,0.2,0.1,0.2,0.2V21.4z"/>
	<path class="st0" d="M68.5,14.1c0.1-0.2,0.2-0.2,0.3-0.2h1.6c0.2,0,0.4,0.2,0.3,0.4L68,21.4c-0.1,0.2-0.2,0.2-0.3,0.2H66
		c-0.1,0-0.2-0.1-0.3-0.2l-2.7-7.2c-0.1-0.2,0-0.4,0.3-0.4h1.6c0.1,0,0.2,0.1,0.3,0.2l1.5,4.4c0,0.1,0.2,0.1,0.2,0L68.5,14.1z"/>
	<path class="st0" d="M73.4,18.4c-0.1,0-0.2,0.1-0.2,0.2c0,0.9,0.6,1.3,1.4,1.3c0.6,0,1-0.2,1.2-0.7c0.1-0.2,0.2-0.3,0.4-0.3h1.3
		c0.2,0,0.3,0.1,0.3,0.3c-0.4,1.4-1.4,2.5-3.1,2.5c-1.9,0-3-1.3-3.2-2.9c-0.1-0.6-0.1-1.7,0-2.3c0.2-1.6,1.3-2.9,3.2-2.9
		c1.9,0,3.2,1.1,3.2,3.1v1.3c0,0.2-0.1,0.3-0.3,0.3H73.4z M73.1,16.5c0,0.1,0.1,0.1,0.2,0.1h2.4c0.1,0,0.2,0,0.2-0.1
		c0-0.7-0.7-1-1.3-1C73.6,15.5,73.1,15.9,73.1,16.5z"/>
	<path class="st0" d="M87.5,13.9c0.2,0,0.3,0.1,0.3,0.3v1.2c0,0.2-0.1,0.3-0.3,0.3h-1.7c-0.1,0-0.2,0.1-0.2,0.2v2.8
		c0,0.5,0.4,0.9,0.9,0.9h1.1c0.2,0,0.3,0.1,0.3,0.3v1.3c0,0.2-0.1,0.3-0.3,0.3h-1.1c-1.8,0-3-1.1-3-2.8v-2.9c0-0.1-0.1-0.2-0.2-0.2
		h-1.2c-0.2,0-0.3-0.1-0.3-0.3v-1.2c0-0.2,0.1-0.3,0.3-0.3h1.2c0.1,0,0.2-0.1,0.2-0.2v-2.4c0-0.2,0.1-0.3,0.3-0.3h1.4
		c0.2,0,0.3,0.1,0.3,0.3v2.4c0,0.1,0.1,0.2,0.2,0.2H87.5z"/>
	<path class="st0" d="M90.6,18.4c-0.1,0-0.2,0.1-0.2,0.2c0,0.9,0.6,1.3,1.4,1.3c0.6,0,1-0.2,1.2-0.7c0.1-0.2,0.2-0.3,0.4-0.3h1.3
		c0.2,0,0.3,0.1,0.3,0.3c-0.4,1.4-1.4,2.5-3.1,2.5c-1.9,0-3-1.3-3.2-2.9c-0.1-0.6-0.1-1.7,0-2.3c0.2-1.6,1.3-2.9,3.2-2.9
		c1.9,0,3.2,1.1,3.2,3.1v1.3c0,0.2-0.1,0.3-0.3,0.3H90.6z M90.4,16.5c0,0.1,0.1,0.1,0.2,0.1h2.4c0.1,0,0.2,0,0.2-0.1
		c0-0.7-0.7-1-1.3-1C90.8,15.5,90.4,15.9,90.4,16.5z"/>
	<path class="st0" d="M98.9,19.3c-0.1-0.1-0.1-0.1-0.2,0l-1.2,2.2c0,0.1-0.1,0.2-0.3,0.2h-1.6c-0.3,0-0.4-0.2-0.2-0.5l2.1-3.4
		c0.1-0.1,0.1-0.2,0-0.3l-1.8-3c-0.2-0.3,0-0.5,0.2-0.5h1.4c0.2,0,0.3,0.1,0.3,0.2l1.1,1.9c0.1,0.1,0.1,0.1,0.2,0L100,14
		c0-0.1,0.1-0.2,0.3-0.2h1.4c0.3,0,0.4,0.2,0.2,0.5l-1.8,3c-0.1,0.1-0.1,0.2,0,0.3l2.1,3.4c0.2,0.3,0,0.5-0.2,0.5h-1.6
		c-0.2,0-0.3-0.1-0.3-0.2L98.9,19.3z"/>
	<path class="st0" d="M108.4,13.9c0.2,0,0.3,0.1,0.3,0.3v1.2c0,0.2-0.1,0.3-0.3,0.3h-1.7c-0.1,0-0.2,0.1-0.2,0.2v2.8
		c0,0.5,0.4,0.9,0.9,0.9h1.1c0.2,0,0.3,0.1,0.3,0.3v1.3c0,0.2-0.1,0.3-0.3,0.3h-1.1c-1.8,0-3-1.1-3-2.8v-2.9c0-0.1-0.1-0.2-0.2-0.2
		h-1.2c-0.2,0-0.3-0.1-0.3-0.3v-1.2c0-0.2,0.1-0.3,0.3-0.3h1.2c0.1,0,0.2-0.1,0.2-0.2v-2.4c0-0.2,0.1-0.3,0.3-0.3h1.4
		c0.2,0,0.3,0.1,0.3,0.3v2.4c0,0.1,0.1,0.2,0.2,0.2H108.4z"/>
	<path class="st0" d="M7.9,34.6c1.9,0,3.2,1.6,3.5,3.4c0.2,1.3,0.2,2.7,0,4c-0.2,1.9-1.6,3.4-3.5,3.4H4.7c-0.2,0-0.3-0.1-0.3-0.3
		V34.9c0-0.2,0.1-0.3,0.3-0.3H7.9z M6.7,36.8c-0.1,0-0.2,0.1-0.2,0.2v6.2c0,0.1,0.1,0.2,0.2,0.2h1.2c0.7,0,1.2-0.6,1.3-1.3
		c0.2-1.3,0.2-2.7,0-4c-0.1-0.7-0.6-1.3-1.3-1.3H6.7z"/>
	<path class="st0" d="M12.9,40.4c0.2-1.6,1.3-2.9,3.2-2.9c1.9,0,3,1.3,3.2,2.9c0.1,0.6,0.1,1.7,0,2.3c-0.2,1.6-1.3,2.9-3.2,2.9
		c-1.9,0-3-1.3-3.2-2.9C12.8,42.1,12.8,41,12.9,40.4z M14.9,42.8c0.1,0.5,0.4,0.9,1.2,0.9c0.8,0,1.1-0.4,1.2-0.9
		c0.1-0.6,0.1-1.7,0-2.3c-0.1-0.5-0.4-0.9-1.2-0.9c-0.8,0-1.1,0.3-1.2,0.9C14.9,41,14.9,42.1,14.9,42.8z"/>
	<path class="st0" d="M22.9,42.2c-0.1,0-0.2,0.1-0.2,0.2c0,0.9,0.6,1.3,1.4,1.3c0.6,0,1-0.2,1.2-0.7c0.1-0.2,0.2-0.3,0.4-0.3h1.3
		c0.2,0,0.3,0.1,0.3,0.3c-0.4,1.4-1.4,2.5-3.1,2.5c-1.9,0-3-1.3-3.2-2.9c-0.1-0.6-0.1-1.7,0-2.3c0.2-1.6,1.3-2.9,3.2-2.9
		c1.9,0,3.2,1.1,3.2,3.1v1.3c0,0.2-0.1,0.3-0.3,0.3H22.9z M22.7,40.3c0,0.1,0.1,0.1,0.2,0.1h2.4c0.1,0,0.2,0,0.2-0.1
		c0-0.7-0.7-1-1.3-1C23.1,39.4,22.7,39.8,22.7,40.3z"/>
	<path class="st0" d="M34.4,40.3h-1.2c-0.2,0-0.3-0.1-0.4-0.4c-0.1-0.5-0.7-0.7-1.2-0.7c-0.7,0-1.2,0.2-1.2,0.6
		c0,0.5,0.6,0.5,1.2,0.6C33,40.8,35,41,35,43.1c0,1.5-1.5,2.5-3.3,2.5c-1.7,0-3.3-0.8-3.3-2.7c0-0.2,0.1-0.3,0.3-0.3h1.2
		c0.4,0,0.4,0.1,0.5,0.4c0.1,0.6,0.7,0.8,1.4,0.8c0.8,0,1.4-0.2,1.4-0.7c0-0.5-0.7-0.6-1.4-0.7c-1.3-0.2-3.1-0.7-3.1-2.5
		c0-1.4,1.6-2.3,3.1-2.3c1.4,0,3.1,0.7,3.1,2.5C34.7,40.2,34.6,40.3,34.4,40.3z"/>
	<path class="st0" d="M42.1,36.4c0,0.1-0.1,0.2-0.2,0.2h-1.7c-0.1,0-0.2-0.1-0.2-0.2v-1.7c0-0.1,0.1-0.2,0.2-0.2h1.7
		c0.1,0,0.2,0.1,0.2,0.2V36.4z M42.1,45.2c0,0.1-0.1,0.2-0.2,0.2h-1.5c-0.1,0-0.2-0.1-0.2-0.2v-7.3c0-0.1,0.1-0.2,0.2-0.2h1.5
		c0.1,0,0.2,0.1,0.2,0.2V45.2z"/>
	<path class="st0" d="M48.7,37.7c0.2,0,0.3,0.1,0.3,0.3v1.2c0,0.2-0.1,0.3-0.3,0.3H47c-0.1,0-0.2,0.1-0.2,0.2v2.8
		c0,0.5,0.4,0.9,0.9,0.9h1.1c0.2,0,0.3,0.1,0.3,0.3v1.3c0,0.2-0.1,0.3-0.3,0.3h-1.1c-1.8,0-3-1.1-3-2.8v-2.9c0-0.1-0.1-0.2-0.2-0.2
		h-1.2c-0.2,0-0.3-0.1-0.3-0.3v-1.2c0-0.2,0.1-0.3,0.3-0.3h1.2c0.1,0,0.2-0.1,0.2-0.2v-2.4c0-0.2,0.1-0.3,0.3-0.3h1.4
		c0.2,0,0.3,0.1,0.3,0.3v2.4c0,0.1,0.1,0.2,0.2,0.2H48.7z"/>
	<path class="st0" d="M57.9,39.6c-1.2,0-2,0.6-2,1.9v3.7c0,0.2-0.1,0.3-0.3,0.3h-1.4c-0.2,0-0.3-0.1-0.3-0.3V38
		c0-0.2,0.1-0.3,0.3-0.3h0.8c0.1,0,0.3,0.1,0.3,0.2c0.1,0.3,0.2,0.7,0.4,0.7c0.5,0,0.7-0.9,2.2-0.9h0.5c0.2,0,0.3,0.1,0.3,0.3v1.2
		c0,0.2-0.1,0.3-0.3,0.3H57.9z"/>
	<path class="st0" d="M61.2,42.2c-0.1,0-0.2,0.1-0.2,0.2c0,0.9,0.6,1.3,1.4,1.3c0.6,0,1-0.2,1.2-0.7c0.1-0.2,0.2-0.3,0.4-0.3h1.3
		c0.2,0,0.3,0.1,0.3,0.3c-0.4,1.4-1.4,2.5-3.1,2.5c-1.9,0-3-1.3-3.2-2.9c-0.1-0.6-0.1-1.7,0-2.3c0.2-1.6,1.3-2.9,3.2-2.9
		c1.9,0,3.2,1.1,3.2,3.1v1.3c0,0.2-0.1,0.3-0.3,0.3H61.2z M61,40.3c0,0.1,0.1,0.1,0.2,0.1h2.4c0.1,0,0.2,0,0.2-0.1
		c0-0.7-0.7-1-1.3-1C61.4,39.4,61,39.8,61,40.3z"/>
	<path class="st0" d="M69,39.9c-0.1,0.3-0.1,0.3-0.4,0.3h-1.1c-0.2,0-0.3-0.1-0.3-0.3c0-1.2,1.1-2.3,3-2.3c1.9,0,3.1,1,3.1,2.8v4.8
		c0,0.2-0.1,0.3-0.3,0.3h-0.8c-0.1,0-0.2,0-0.2-0.1c-0.1-0.1-0.1-0.3-0.3-0.3c-0.3,0-0.7,0.6-1.9,0.6c-1.8,0-2.9-0.9-2.9-2.6
		c0-1.1,0.9-2.4,2.7-2.4h1.6c0.1,0,0.2-0.1,0.2-0.2v-0.2c0-0.6-0.5-0.9-1.2-0.9C69.7,39.3,69.1,39.4,69,39.9z M69.5,42.3
		c-0.7,0-0.8,0.5-0.8,0.8c0,0.6,0.5,0.8,1,0.8c0.9,0,1.6-0.3,1.6-1.1v-0.4c0-0.1-0.1-0.2-0.2-0.2H69.5z"/>
	<path class="st0" d="M77.1,45.2c0,0.2-0.1,0.3-0.3,0.3h-1.4c-0.2,0-0.3-0.1-0.3-0.3V34.7c0-0.2,0.1-0.3,0.3-0.3h1.4
		c0.2,0,0.3,0.1,0.3,0.3V45.2z"/>
	<path class="st0" d="M81.2,45.2c0,0.2-0.1,0.3-0.3,0.3h-1.4c-0.2,0-0.3-0.1-0.3-0.3V34.7c0-0.2,0.1-0.3,0.3-0.3h1.4
		c0.2,0,0.3,0.1,0.3,0.3V45.2z"/>
	<path class="st0" d="M85.9,42.3c0,0.1,0.2,0.1,0.2,0l1.3-4.4c0-0.2,0.2-0.2,0.3-0.2h1.6c0.2,0,0.4,0.2,0.3,0.4l-3.7,10.3
		c-0.1,0.2-0.2,0.2-0.3,0.2h-1.4c-0.2,0-0.4-0.2-0.3-0.4l1.1-2.9c0-0.1,0.1-0.2,0-0.3l-2.6-6.9c-0.1-0.2,0-0.4,0.3-0.4h1.6
		c0.1,0,0.2,0.1,0.3,0.2L85.9,42.3z"/>
	<path class="st0" d="M96.6,42.5c0,0.1,0.2,0.1,0.2,0l0.9-4.6c0-0.2,0.2-0.2,0.3-0.2h1.5c0.1,0,0.3,0.1,0.3,0.2l1,4.6
		c0,0.1,0.1,0.1,0.2,0l1.2-4.6c0-0.2,0.2-0.2,0.3-0.2h1.4c0.2,0,0.3,0.2,0.3,0.4l-2.1,7.2c0,0.2-0.2,0.2-0.3,0.2H100
		c-0.1,0-0.3-0.1-0.3-0.2l-0.9-3.6c0-0.1-0.2-0.1-0.2,0l-0.8,3.6c0,0.2-0.2,0.2-0.3,0.2h-1.7c-0.1,0-0.2-0.1-0.3-0.2l-2.2-7.2
		c0-0.2,0-0.4,0.3-0.4h1.4c0.1,0,0.2,0.1,0.3,0.2L96.6,42.5z"/>
	<path class="st0" d="M104.7,40.4c0.2-1.6,1.3-2.9,3.2-2.9c1.9,0,3,1.3,3.2,2.9c0.1,0.6,0.1,1.7,0,2.3c-0.2,1.6-1.3,2.9-3.2,2.9
		c-1.9,0-3-1.3-3.2-2.9C104.7,42.1,104.7,41,104.7,40.4z M106.8,42.8c0.1,0.5,0.4,0.9,1.2,0.9c0.8,0,1.1-0.4,1.2-0.9
		c0.1-0.6,0.1-1.7,0-2.3c-0.1-0.5-0.4-0.9-1.2-0.9c-0.8,0-1.1,0.3-1.2,0.9C106.7,41,106.7,42.1,106.8,42.8z"/>
	<path class="st0" d="M116.9,39.6c-1.2,0-2,0.6-2,1.9v3.7c0,0.2-0.1,0.3-0.3,0.3h-1.4c-0.2,0-0.3-0.1-0.3-0.3V38
		c0-0.2,0.1-0.3,0.3-0.3h0.8c0.1,0,0.3,0.1,0.3,0.2c0.1,0.3,0.2,0.7,0.4,0.7c0.5,0,0.7-0.9,2.2-0.9h0.5c0.2,0,0.3,0.1,0.3,0.3v1.2
		c0,0.2-0.1,0.3-0.3,0.3H116.9z"/>
	<path class="st0" d="M122.7,41.1c-0.1,0.2-0.1,0.3,0,0.5l2.5,3.4c0.2,0.2,0,0.5-0.2,0.5h-1.6c-0.2,0-0.3-0.1-0.4-0.2l-1.9-2.7
		c0-0.1-0.2,0-0.2,0v2.6c0,0.2-0.1,0.3-0.3,0.3h-1.4c-0.2,0-0.3-0.1-0.3-0.3V34.7c0-0.2,0.1-0.3,0.3-0.3h1.4c0.2,0,0.3,0.1,0.3,0.3
		v5.4c0,0.1,0.1,0.1,0.2,0l1.8-2.3c0.1-0.1,0.2-0.2,0.4-0.2h1.5c0.3,0,0.4,0.3,0.2,0.5L122.7,41.1z"/>
</g>
</svg>
